Coordinates
version=1
nRows=37
nColumns=38
inDegrees=no

Units are S.I. units (second, meters, Newtons, ...)
If the header above contains a line with 'inDegrees', this indicates whether rotational values are in degrees (yes) or radians (no).

endheader
time	pelvis_tilt	pelvis_list	pelvis_rotation	pelvis_tx	pelvis_ty	pelvis_tz	hip_flexion_r	hip_adduction_r	hip_rotation_r	knee_angle_r	ankle_angle_r	subtalar_angle_r	mtp_angle_r	hip_flexion_l	hip_adduction_l	hip_rotation_l	knee_angle_l	ankle_angle_l	subtalar_angle_l	mtp_angle_l	lumbar_extension	lumbar_bending	lumbar_rotation	arm_flex_r	arm_add_r	arm_rot_r	elbow_flex_r	pro_sup_r	wrist_flex_r	wrist_dev_r	arm_flex_l	arm_add_l	arm_rot_l	elbow_flex_l	pro_sup_l	wrist_flex_l	wrist_dev_l
1.27	-3.04093	1.32198	-1.51313	0.710399	0.920888	1.10309	-0.251887	0.039759	-0.218529	0.490318	-0.104561	0	0	0.189789	-0.0666745	-0.00672146	0.419482	-0.149823	0	0	-0.415425	0.0200878	0.043553	0.621769	-0.387719	0.73931	1.10865	0.519397	0	0	0.198543	-0.584958	0.00703103	1.1839	0.727448	0	0
1.28	-3.05016	1.32542	-1.50311	0.707502	0.931861	1.10098	-0.257467	0.0397687	-0.222393	0.495779	-0.0984665	0	0	0.191625	-0.0691062	-0.0186626	0.381893	-0.137939	0	0	-0.410063	0.0240188	0.0403505	0.620871	-0.389334	0.739672	1.10978	0.518645	0	0	0.197588	-0.584422	0.00730895	1.18496	0.728095	0	0
1.29	-3.05726	1.32908	-1.49523	0.704484	0.942898	1.09877	-0.262486	0.0389694	-0.226787	0.502326	-0.0923083	0	0	0.1934	-0.0705919	-0.0319059	0.347313	-0.125345	0	0	-0.4044	0.0272611	0.0370846	0.619864	-0.391203	0.740321	1.11097	0.517508	0	0	0.196993	-0.583751	0.00772691	1.18568	0.729047	0	0
1.3	-3.06341	1.33308	-1.48794	0.701415	0.954027	1.09653	-0.267033	0.0377523	-0.231169	0.508973	-0.0866059	0	0	0.195009	-0.0715029	-0.0438458	0.314916	-0.112956	0	0	-0.398373	0.0299581	0.0335799	0.618411	-0.39303	0.740655	1.11228	0.516177	0	0	0.196788	-0.58327	0.00852421	1.18624	0.730264	0	0
1.31	-3.06933	1.33717	-1.48062	0.698365	0.965268	1.09426	-0.271387	0.0363701	-0.235158	0.51566	-0.0817763	0	0	0.195709	-0.0721364	-0.0530507	0.284405	-0.101618	0	0	-0.392204	0.0321724	0.0298484	0.616543	-0.394509	0.740566	1.11354	0.514511	0	0	0.19696	-0.58326	0.0096255	1.18671	0.731967	0	0
1.32	-3.07484	1.34113	-1.47422	0.695335	0.976618	1.09197	-0.275772	0.0347417	-0.237941	0.52283	-0.0773941	0	0	0.194827	-0.0724086	-0.0597514	0.256137	-0.092205	0	0	-0.38607	0.0340625	0.0265047	0.61462	-0.3959	0.740476	1.11468	0.512743	0	0	0.197089	-0.583313	0.0106473	1.18701	0.733095	0	0
1.33	-3.08051	1.34508	-1.46857	0.692257	0.988093	1.08963	-0.279799	0.03266	-0.239763	0.530892	-0.0734454	0	0	0.193252	-0.0723831	-0.0651395	0.232676	-0.0852273	0	0	-0.379727	0.0359259	0.0239291	0.612758	-0.397507	0.740686	1.11576	0.510906	0	0	0.196903	-0.582926	0.0114399	1.18713	0.733262	0	0
1.34	2.78677	1.51443	-1.14376	0.693948	1.01855	1.07179	-0.0873707	0.0249218	-0.127507	0.586195	-0.0427372	0	0	0.346007	-0.1136	-0.189483	0.223383	-0.0519583	0	0	-0.128704	0.0406844	0.11401	0.5098	-0.395235	0.721185	1.08346	0.542702	0	0	0.127029	-0.521861	-0.0109924	1.13075	0.772901	0	0
1.35	-3.09258	1.35277	-1.45897	0.686051	1.01165	1.08507	-0.286972	0.0269351	-0.240306	0.548594	-0.0681319	0	0	0.190475	-0.0721962	-0.0748494	0.208819	-0.0775571	0	0	-0.36643	0.0387214	0.022802	0.606452	-0.401776	0.738415	1.11826	0.508782	0	0	0.199583	-0.580874	0.016713	1.18425	0.734037	0	0
1.36	2.73816	1.51872	-1.09882	0.687982	1.0425	1.0677	-0.09704	0.0162857	-0.127835	0.602908	-0.043664	0	0	0.3413	-0.112087	-0.201622	0.218332	-0.0461543	0	0	-0.117893	0.0423106	0.113062	0.504255	-0.398477	0.72039	1.08505	0.539646	0	0	0.128262	-0.521439	-0.00616763	1.12913	0.772149	0	0
1.37	2.67406	1.52538	-1.03838	0.685342	1.05512	1.06534	-0.0959705	0.0114499	-0.124425	0.613097	-0.0428811	0	0	0.345116	-0.111736	-0.207771	0.230911	-0.0434172	0	0	-0.103821	0.0414826	0.116424	0.49494	-0.397289	0.713164	1.08213	0.546094	0	0	0.130209	-0.520668	-4.28907e-05	1.12352	0.775086	0	0
1.38	2.66355	1.52815	-1.03222	0.682904	1.06776	1.06358	-0.099797	0.00614589	-0.120333	0.622944	-0.0451045	0	0	0.343762	-0.111865	-0.213627	0.252001	-0.0405131	0	0	-0.0962932	0.0396306	0.120416	0.487575	-0.396126	0.706246	1.07992	0.551921	0	0	0.132842	-0.520939	0.00620396	1.12002	0.777777	0	0
1.39	2.74581	1.5248	-1.11773	0.680037	1.08019	1.06268	-0.111459	-0.000731836	-0.118966	0.631578	-0.0514193	0	0	0.333841	-0.110417	-0.216156	0.276227	-0.0363935	0	0	-0.0984362	0.0374984	0.123459	0.482859	-0.395957	0.699004	1.07901	0.557358	0	0	0.138004	-0.521431	0.013306	1.11741	0.780008	0	0
1.4	2.85259	1.51572	-1.22798	0.67718	1.09262	1.06238	-0.129751	-0.00743605	-0.117766	0.638305	-0.0623851	0	0	0.31501	-0.108763	-0.215333	0.29653	-0.0286413	0	0	-0.10847	0.0353376	0.126826	0.479967	-0.397095	0.691773	1.08075	0.562203	0	0	0.144321	-0.522841	0.020586	1.11704	0.780423	0	0
1.41	2.92638	1.50596	-1.3058	0.674351	1.10526	1.06201	-0.147459	-0.0141285	-0.115724	0.646371	-0.0743864	0	0	0.294243	-0.106841	-0.212818	0.310331	-0.0192695	0	0	-0.118205	0.0333236	0.129651	0.478554	-0.398096	0.687598	1.08184	0.564343	0	0	0.14872	-0.524508	0.0261603	1.1179	0.77964	0	0
1.42	2.98027	1.49579	-1.36362	0.671395	1.11806	1.06157	-0.164064	-0.0211964	-0.113956	0.656686	-0.0880422	0	0	0.274678	-0.10498	-0.213262	0.319637	-0.0126106	0	0	-0.127393	0.0314753	0.131816	0.477825	-0.399185	0.68517	1.08257	0.564319	0	0	0.151968	-0.526505	0.0316008	1.11936	0.779444	0	0
1.43	3.02487	1.48623	-1.41146	0.668194	1.131	1.06111	-0.178169	-0.0291365	-0.11284	0.670002	-0.103917	0	0	0.256876	-0.102027	-0.215081	0.321672	-0.0164127	0	0	-0.135113	0.0293955	0.132804	0.477063	-0.400162	0.683527	1.08297	0.562839	0	0	0.154474	-0.528147	0.0362012	1.12035	0.777463	0	0
1.44	3.06617	1.47877	-1.45513	0.664728	1.14413	1.06061	-0.188234	-0.0381963	-0.112078	0.685992	-0.123946	0	0	0.240846	-0.0977404	-0.214678	0.316903	-0.031358	0	0	-0.139787	0.0266212	0.132646	0.475261	-0.40065	0.68159	1.08266	0.560246	0	0	0.156211	-0.529264	0.040167	1.12041	0.772191	0	0
1.45	3.10666	1.47517	-1.49708	0.660965	1.15763	1.0599	-0.192384	-0.0485367	-0.111538	0.705065	-0.145576	0	0	0.227982	-0.0919661	-0.212863	0.310052	-0.0492804	0	0	-0.138512	0.0232379	0.131463	0.471555	-0.400322	0.679819	1.08072	0.558258	0	0	0.156192	-0.529338	0.0434122	1.11887	0.7699	0	0
1.46	-3.13327	1.47351	-1.54107	0.65694	1.17143	1.05913	-0.192631	-0.0602296	-0.111483	0.727138	-0.171842	0	0	0.217476	-0.0853345	-0.214485	0.306597	-0.0678362	0	0	-0.133753	0.0195855	0.129622	0.466506	-0.399975	0.678535	1.07842	0.557294	0	0	0.155057	-0.528761	0.0466165	1.11626	0.769569	0	0
1.47	-3.08943	1.47373	-1.58491	0.652733	1.18538	1.0583	-0.188852	-0.0726917	-0.111261	0.751748	-0.202677	0	0	0.211597	-0.0788439	-0.221114	0.310572	-0.0854663	0	0	-0.126287	0.0159937	0.126947	0.460597	-0.399683	0.677971	1.07631	0.55821	0	0	0.152933	-0.527845	0.0494292	1.11313	0.770153	0	0
1.48	-3.0441	1.47696	-1.63004	0.648627	1.19943	1.05736	-0.178583	-0.0853135	-0.10971	0.780528	-0.238484	0	0	0.212245	-0.0734901	-0.23114	0.322517	-0.101942	0	0	-0.115049	0.0121092	0.123987	0.453386	-0.39816	0.675684	1.07327	0.559563	0	0	0.149783	-0.527152	0.0518147	1.10959	0.770466	0	0
1.49	-2.98643	1.48316	-1.68781	0.644768	1.21349	1.05652	-0.161692	-0.0979646	-0.105737	0.812566	-0.279954	0	0	0.217423	-0.0685615	-0.241218	0.338671	-0.117222	0	0	-0.100157	0.00700067	0.121756	0.44505	-0.395405	0.672959	1.06844	0.563815	0	0	0.146447	-0.526445	0.054333	1.10483	0.771098	0	0
1.5	-2.91438	1.48679	-1.75879	0.640778	1.22709	1.05648	-0.144484	-0.111259	-0.101861	0.845685	-0.326893	0	0	0.220185	-0.0623493	-0.248171	0.355439	-0.130514	0	0	-0.0893966	0.000754922	0.118605	0.437496	-0.391561	0.667468	1.0628	0.567949	0	0	0.14498	-0.525416	0.0569407	1.09943	0.772242	0	0
1.51	-2.84623	1.48799	-1.82552	0.636743	1.24008	1.05713	-0.126658	-0.123749	-0.0960483	0.879484	-0.378576	0	0	0.220935	-0.0566076	-0.254136	0.373425	-0.141238	0	0	-0.0832674	-0.0051789	0.115141	0.43224	-0.388248	0.662294	1.05743	0.574581	0	0	0.145297	-0.52401	0.0594805	1.09411	0.773656	0	0
1.52	-2.78919	1.48876	-1.88162	0.632826	1.2525	1.05811	-0.106181	-0.134223	-0.0872919	0.914548	-0.432151	0	0	0.222359	-0.0529059	-0.261999	0.394056	-0.149682	0	0	-0.0795133	-0.00992849	0.112048	0.429197	-0.385679	0.658248	1.05215	0.584358	0	0	0.14663	-0.522169	0.0616155	1.08913	0.775305	0	0
1.53	-2.74146	1.48997	-1.92917	0.629071	1.26438	1.05922	-0.0824606	-0.142272	-0.0757271	0.950821	-0.485142	0	0	0.224778	-0.0509756	-0.271414	0.415323	-0.156679	0	0	-0.0767851	-0.0133323	0.109505	0.427104	-0.383665	0.654412	1.04792	0.592668	0	0	0.148517	-0.519986	0.063404	1.08449	0.777729	0	0
1.54	-2.70554	1.49138	-1.96559	0.625544	1.27575	1.06042	-0.0566318	-0.147078	-0.0608298	0.987424	-0.535404	0	0	0.227099	-0.0504486	-0.280868	0.43525	-0.162631	0	0	-0.075462	-0.015367	0.10746	0.426147	-0.382111	0.650635	1.04476	0.59837	0	0	0.151011	-0.517844	0.0651934	1.08033	0.780904	0	0
1.55	-2.69309	1.49138	-1.97832	0.622022	1.28641	1.06181	-0.0313321	-0.148656	-0.0444346	1.02342	-0.581379	0	0	0.22725	-0.0505381	-0.288423	0.453571	-0.167089	0	0	-0.0780843	-0.0155915	0.105005	0.428359	-0.382949	0.649706	1.04371	0.600202	0	0	0.154952	-0.515423	0.0668233	1.07683	0.784555	0	0
1.56	-2.71563	1.48782	-1.95467	0.618285	1.29627	1.06365	-0.0101772	-0.147607	-0.0292236	1.05655	-0.628909	0	0	0.222693	-0.0505991	-0.293122	0.471702	-0.168717	0	0	-0.087892	-0.0134683	0.100743	0.433757	-0.385365	0.650055	1.04451	0.60128	0	0	0.160713	-0.512764	0.0680587	1.07449	0.785519	0	0
1.57	-2.76542	1.47888	-1.90254	0.614357	1.30551	1.06619	0.00365129	-0.144417	-0.0156778	1.08483	-0.672556	0	0	0.210227	-0.049546	-0.294242	0.485904	-0.169147	0	0	-0.106275	-0.0100046	0.0947838	0.442724	-0.389475	0.652397	1.04719	0.60041	0	0	0.168174	-0.510706	0.0695424	1.0739	0.783433	0	0
1.58	-2.8167	1.46867	-1.8499	0.610799	1.31465	1.06897	0.0153354	-0.138121	-0.000687069	1.11037	-0.698132	0	0	0.193706	-0.0497376	-0.295268	0.49802	-0.167077	0	0	-0.12614	-0.00592721	0.0895779	0.452786	-0.393989	0.657358	1.0501	0.599753	0	0	0.175211	-0.509849	0.0712761	1.07438	0.779156	0	0
1.59	-2.85755	1.46165	-1.80894	0.607722	1.32402	1.0715	0.0302879	-0.128974	0.0160003	1.13556	-0.698132	0	0	0.178752	-0.0510853	-0.297023	0.507075	-0.165254	0	0	-0.140508	-0.00173881	0.0860866	0.460556	-0.396779	0.660557	1.05101	0.599267	0	0	0.180756	-0.509448	0.0735944	1.07421	0.776074	0	0
1.6	-2.90269	1.45398	-1.76392	0.604811	1.33342	1.07423	0.0430432	-0.117849	0.031359	1.15689	-0.688307	0	0	0.161415	-0.0535027	-0.3001	0.512911	-0.163326	0	0	-0.155432	0.00337722	0.0829209	0.468626	-0.4001	0.664352	1.05268	0.595165	0	0	0.185175	-0.509226	0.07532	1.07536	0.774743	0	0
1.61	-2.95104	1.44077	-1.7146	0.601644	1.34251	1.07756	0.0481507	-0.106832	0.0430503	1.17626	-0.639688	0	0	0.136822	-0.0553552	-0.3023	0.514593	-0.162061	0	0	-0.178045	0.00990186	0.0769711	0.480411	-0.404661	0.673011	1.05619	0.590781	0	0	0.187885	-0.509097	0.0727646	1.08007	0.772532	0	0
1.62	-2.98083	1.4356	-1.68533	0.598774	1.35228	1.08008	0.0625502	-0.096012	0.0554417	1.19474	-0.597018	0	0	0.119954	-0.0571573	-0.305606	0.514771	-0.161877	0	0	-0.187753	0.015147	0.0737606	0.487353	-0.408051	0.679434	1.05744	0.580472	0	0	0.188453	-0.508067	0.0712184	1.08158	0.771485	0	0
1.63	-3.00232	1.43154	-1.6635	0.595569	1.36212	1.08255	0.0778582	-0.0873743	0.0646527	1.20845	-0.567527	0	0	0.103855	-0.0572015	-0.30686	0.512957	-0.162235	0	0	-0.194873	0.0201713	0.0700207	0.491714	-0.410236	0.683862	1.05704	0.581475	0	0	0.188838	-0.506507	0.0707165	1.08144	0.771758	0	0
